<mxfile host="app.diagrams.net" modified="2024-05-21T13:24:06.586Z" agent="Mozilla/5.0 (Windows NT 10.0; Win64; x64) AppleWebKit/537.36 (KHTML, like Gecko) Chrome/125.0.0.0 Safari/537.36" etag="-8CYKciiXAlaWgUo5Nfp" version="24.4.4" type="github">
  <diagram name="PÃ¡gina-1" id="mGCjM0xPOUWwRISaZ-gU">
    <mxGraphModel dx="1877" dy="522" grid="1" gridSize="10" guides="1" tooltips="1" connect="1" arrows="1" fold="1" page="1" pageScale="1" pageWidth="827" pageHeight="1169" math="0" shadow="0">
      <root>
        <mxCell id="0" />
        <mxCell id="1" parent="0" />
        <mxCell id="nnxOR7MUioTcY6HnBUIz-1" value="&lt;p style=&quot;margin:0px;margin-top:4px;text-align:center;&quot;&gt;&amp;lt;&amp;lt;requirement&amp;gt;&amp;gt;&lt;br&gt;&lt;b&gt;Register Patient&lt;/b&gt;&lt;/p&gt;&lt;hr&gt;&lt;p&gt;&lt;/p&gt;&lt;p style=&quot;margin:0px;margin-left:8px;text-align:left;&quot;&gt;text=&quot;The system should register a new patient&quot;&lt;br&gt;Id=&quot;1&quot;&lt;/p&gt;" style="shape=rect;overflow=fill;html=1;whiteSpace=wrap;align=center;" vertex="1" parent="1">
          <mxGeometry x="359" y="40" width="200" height="100" as="geometry" />
        </mxCell>
        <mxCell id="nnxOR7MUioTcY6HnBUIz-3" value="&lt;p style=&quot;margin:0px;margin-top:4px;text-align:center;&quot;&gt;&amp;lt;&amp;lt;requirement&amp;gt;&amp;gt;&lt;br&gt;&lt;b&gt;Documents Provided&lt;/b&gt;&lt;/p&gt;&lt;hr&gt;&lt;p&gt;&lt;/p&gt;&lt;p style=&quot;margin:0px;margin-left:8px;text-align:left;&quot;&gt;text=&quot;The system should register a new patient&quot;&lt;br&gt;Id=&quot;1&quot;&lt;/p&gt;" style="shape=rect;overflow=fill;html=1;whiteSpace=wrap;align=center;" vertex="1" parent="1">
          <mxGeometry x="50" y="190" width="200" height="100" as="geometry" />
        </mxCell>
        <mxCell id="nnxOR7MUioTcY6HnBUIz-4" value="&lt;p style=&quot;margin:0px;margin-top:4px;text-align:center;&quot;&gt;&amp;lt;&amp;lt;requirement&amp;gt;&amp;gt;&lt;br&gt;&lt;b&gt;Documents Validated&lt;/b&gt;&lt;/p&gt;&lt;hr&gt;&lt;p&gt;&lt;/p&gt;&lt;p style=&quot;margin:0px;margin-left:8px;text-align:left;&quot;&gt;text=&quot;The system should register a new patient&quot;&lt;br&gt;Id=&quot;1&quot;&lt;/p&gt;" style="shape=rect;overflow=fill;html=1;whiteSpace=wrap;align=center;" vertex="1" parent="1">
          <mxGeometry x="359" y="190" width="200" height="100" as="geometry" />
        </mxCell>
        <mxCell id="nnxOR7MUioTcY6HnBUIz-6" value="&lt;p style=&quot;margin:0px;margin-top:4px;text-align:center;&quot;&gt;&amp;lt;&amp;lt;requirement&amp;gt;&amp;gt;&lt;br&gt;&lt;b&gt;Documents Ok&lt;/b&gt;&lt;/p&gt;&lt;hr&gt;&lt;p&gt;&lt;/p&gt;&lt;p style=&quot;margin:0px;margin-left:8px;text-align:left;&quot;&gt;text=&quot;The system should register a new patient&quot;&lt;br&gt;Id=&quot;1&quot;&lt;/p&gt;" style="shape=rect;overflow=fill;html=1;whiteSpace=wrap;align=center;" vertex="1" parent="1">
          <mxGeometry x="220" y="330" width="200" height="100" as="geometry" />
        </mxCell>
        <mxCell id="nnxOR7MUioTcY6HnBUIz-7" value="&lt;p style=&quot;margin:0px;margin-top:4px;text-align:center;&quot;&gt;&amp;lt;&amp;lt;requirement&amp;gt;&amp;gt;&lt;br&gt;&lt;b&gt;Notify patient if documents ok&lt;/b&gt;&lt;/p&gt;&lt;hr&gt;&lt;p&gt;&lt;/p&gt;&lt;p style=&quot;margin:0px;margin-left:8px;text-align:left;&quot;&gt;text=&quot;&lt;span style=&quot;font-size: 11px; text-align: center; background-color: rgb(255, 255, 255);&quot;&gt;Patient notified if documents not ok&lt;/span&gt;&quot;&lt;br&gt;Id=&quot;1&quot;&lt;/p&gt;" style="shape=rect;overflow=fill;html=1;whiteSpace=wrap;align=center;" vertex="1" parent="1">
          <mxGeometry x="450" y="330" width="200" height="100" as="geometry" />
        </mxCell>
        <mxCell id="nnxOR7MUioTcY6HnBUIz-8" value="&lt;p style=&quot;margin:0px;margin-top:4px;text-align:center;&quot;&gt;&amp;lt;&amp;lt;requirement&amp;gt;&amp;gt;&lt;br&gt;&lt;b&gt;Identity Check&lt;/b&gt;&lt;/p&gt;&lt;hr&gt;&lt;p&gt;&lt;/p&gt;&lt;p style=&quot;margin:0px;margin-left:8px;text-align:left;&quot;&gt;text=&quot;The system should register a new patient&quot;&lt;br&gt;Id=&quot;1&quot;&lt;/p&gt;" style="shape=rect;overflow=fill;html=1;whiteSpace=wrap;align=center;" vertex="1" parent="1">
          <mxGeometry x="220" y="485" width="200" height="100" as="geometry" />
        </mxCell>
        <mxCell id="nnxOR7MUioTcY6HnBUIz-9" value="&lt;p style=&quot;margin:0px;margin-top:4px;text-align:center;&quot;&gt;&amp;lt;&amp;lt;requirement&amp;gt;&amp;gt;&lt;br&gt;&lt;b&gt;Information Saved on DB&lt;/b&gt;&lt;/p&gt;&lt;hr&gt;&lt;p&gt;&lt;/p&gt;&lt;p style=&quot;margin:0px;margin-left:8px;text-align:left;&quot;&gt;text=&quot;The system should register a new patient&quot;&lt;br&gt;Id=&quot;1&quot;&lt;/p&gt;" style="shape=rect;overflow=fill;html=1;whiteSpace=wrap;align=center;" vertex="1" parent="1">
          <mxGeometry x="627" y="190" width="200" height="100" as="geometry" />
        </mxCell>
        <mxCell id="nnxOR7MUioTcY6HnBUIz-10" value="&lt;p style=&quot;margin:0px;margin-top:4px;text-align:center;&quot;&gt;&amp;lt;&amp;lt;requirement&amp;gt;&amp;gt;&lt;br&gt;&lt;b&gt;Patient Notified&lt;/b&gt;&lt;/p&gt;&lt;hr&gt;&lt;p&gt;&lt;/p&gt;&lt;p style=&quot;margin:0px;margin-left:8px;text-align:left;&quot;&gt;text=&quot;The system should register a new patient&quot;&lt;br&gt;Id=&quot;1&quot;&lt;/p&gt;" style="shape=rect;overflow=fill;html=1;whiteSpace=wrap;align=center;" vertex="1" parent="1">
          <mxGeometry x="860" y="190" width="200" height="100" as="geometry" />
        </mxCell>
        <mxCell id="nnxOR7MUioTcY6HnBUIz-11" value="&lt;p style=&quot;margin:0px;margin-top:4px;text-align:center;&quot;&gt;&amp;lt;&amp;lt;requirement&amp;gt;&amp;gt;&lt;br&gt;&lt;span style=&quot;font-size: 11px; background-color: rgb(255, 255, 255);&quot;&gt;&lt;b&gt;Contact by phone and ask for new email&lt;/b&gt;&lt;/span&gt;&lt;br&gt;&lt;/p&gt;&lt;hr&gt;&lt;p&gt;&lt;/p&gt;&lt;p style=&quot;margin:0px;margin-left:8px;text-align:left;&quot;&gt;text=&quot;The system should register a new patient&quot;&lt;br&gt;Id=&quot;1&quot;&lt;/p&gt;" style="shape=rect;overflow=fill;html=1;whiteSpace=wrap;align=center;" vertex="1" parent="1">
          <mxGeometry x="925" y="330" width="225" height="100" as="geometry" />
        </mxCell>
        <mxCell id="nnxOR7MUioTcY6HnBUIz-12" value="&amp;lt;&amp;lt;actor&amp;gt;&amp;gt;&lt;br&gt;&lt;br&gt;&lt;b&gt;Patient&lt;/b&gt;" style="html=1;align=center;verticalAlign=middle;dashed=0;whiteSpace=wrap;" vertex="1" parent="1">
          <mxGeometry x="70" y="330" width="80" height="51" as="geometry" />
        </mxCell>
        <mxCell id="nnxOR7MUioTcY6HnBUIz-13" value="&amp;lt;&amp;lt;block&amp;gt;&amp;gt;&lt;br&gt;&lt;br&gt;&lt;b&gt;Validation Controller&lt;/b&gt;" style="html=1;align=center;verticalAlign=middle;dashed=0;whiteSpace=wrap;" vertex="1" parent="1">
          <mxGeometry x="-10" y="415" width="160" height="70" as="geometry" />
        </mxCell>
        <mxCell id="nnxOR7MUioTcY6HnBUIz-14" value="&amp;lt;&amp;lt;block&amp;gt;&amp;gt;&lt;br&gt;&lt;br&gt;&lt;b&gt;Patient Controller&lt;/b&gt;" style="html=1;align=center;verticalAlign=middle;dashed=0;whiteSpace=wrap;" vertex="1" parent="1">
          <mxGeometry x="672" y="329" width="110" height="50" as="geometry" />
        </mxCell>
        <mxCell id="nnxOR7MUioTcY6HnBUIz-15" value="&amp;lt;&amp;lt;block&amp;gt;&amp;gt;&lt;br&gt;&lt;br&gt;&lt;b&gt;Message Controller&lt;/b&gt;" style="html=1;align=center;verticalAlign=middle;dashed=0;whiteSpace=wrap;" vertex="1" parent="1">
          <mxGeometry x="550" y="540" width="120" height="45" as="geometry" />
        </mxCell>
        <mxCell id="nnxOR7MUioTcY6HnBUIz-16" value="&amp;lt;&amp;lt;block&amp;gt;&amp;gt;&lt;br&gt;&lt;br&gt;&lt;b&gt;Human Resource Manager&lt;/b&gt;" style="html=1;align=center;verticalAlign=middle;dashed=0;whiteSpace=wrap;" vertex="1" parent="1">
          <mxGeometry x="958" y="500" width="160" height="55" as="geometry" />
        </mxCell>
        <mxCell id="nnxOR7MUioTcY6HnBUIz-26" value="" style="rounded=0;html=1;labelBackgroundColor=none;endArrow=none;edgeStyle=elbowEdgeStyle;elbow=vertical;startArrow=sysMLPackCont;startSize=12;" edge="1" parent="1" source="nnxOR7MUioTcY6HnBUIz-1" target="nnxOR7MUioTcY6HnBUIz-3">
          <mxGeometry relative="1" as="geometry">
            <mxPoint x="240" y="120" as="sourcePoint" />
            <mxPoint x="150" y="180" as="targetPoint" />
          </mxGeometry>
        </mxCell>
        <mxCell id="nnxOR7MUioTcY6HnBUIz-27" value="" style="rounded=0;html=1;labelBackgroundColor=none;endArrow=none;edgeStyle=elbowEdgeStyle;elbow=vertical;startArrow=sysMLPackCont;startSize=12;" edge="1" parent="1" source="nnxOR7MUioTcY6HnBUIz-1" target="nnxOR7MUioTcY6HnBUIz-4">
          <mxGeometry relative="1" as="geometry">
            <mxPoint x="700" y="120" as="sourcePoint" />
            <mxPoint x="610" y="180" as="targetPoint" />
          </mxGeometry>
        </mxCell>
        <mxCell id="nnxOR7MUioTcY6HnBUIz-28" value="" style="rounded=0;html=1;labelBackgroundColor=none;endArrow=none;edgeStyle=elbowEdgeStyle;elbow=vertical;startArrow=sysMLPackCont;startSize=12;" edge="1" parent="1" source="nnxOR7MUioTcY6HnBUIz-1" target="nnxOR7MUioTcY6HnBUIz-9">
          <mxGeometry relative="1" as="geometry">
            <mxPoint x="850" y="60" as="sourcePoint" />
            <mxPoint x="760" y="120" as="targetPoint" />
          </mxGeometry>
        </mxCell>
        <mxCell id="nnxOR7MUioTcY6HnBUIz-29" value="" style="rounded=0;html=1;labelBackgroundColor=none;endArrow=none;edgeStyle=elbowEdgeStyle;elbow=vertical;startArrow=sysMLPackCont;startSize=12;" edge="1" parent="1" source="nnxOR7MUioTcY6HnBUIz-1" target="nnxOR7MUioTcY6HnBUIz-10">
          <mxGeometry relative="1" as="geometry">
            <mxPoint x="910" y="90" as="sourcePoint" />
            <mxPoint x="820" y="150" as="targetPoint" />
          </mxGeometry>
        </mxCell>
        <mxCell id="nnxOR7MUioTcY6HnBUIz-30" value="" style="rounded=0;html=1;labelBackgroundColor=none;endArrow=none;edgeStyle=elbowEdgeStyle;elbow=vertical;startArrow=sysMLPackCont;startSize=12;" edge="1" parent="1" source="nnxOR7MUioTcY6HnBUIz-4" target="nnxOR7MUioTcY6HnBUIz-6">
          <mxGeometry relative="1" as="geometry">
            <mxPoint x="320" y="280" as="sourcePoint" />
            <mxPoint x="230" y="340" as="targetPoint" />
          </mxGeometry>
        </mxCell>
        <mxCell id="nnxOR7MUioTcY6HnBUIz-31" value="" style="rounded=0;html=1;labelBackgroundColor=none;endArrow=none;edgeStyle=elbowEdgeStyle;elbow=vertical;startArrow=sysMLPackCont;startSize=12;" edge="1" parent="1" source="nnxOR7MUioTcY6HnBUIz-4" target="nnxOR7MUioTcY6HnBUIz-7">
          <mxGeometry relative="1" as="geometry">
            <mxPoint x="640" y="300" as="sourcePoint" />
            <mxPoint x="550" y="360" as="targetPoint" />
          </mxGeometry>
        </mxCell>
        <mxCell id="nnxOR7MUioTcY6HnBUIz-32" value="" style="rounded=0;html=1;labelBackgroundColor=none;endArrow=none;edgeStyle=elbowEdgeStyle;elbow=vertical;startArrow=sysMLPackCont;startSize=12;" edge="1" parent="1" source="nnxOR7MUioTcY6HnBUIz-6" target="nnxOR7MUioTcY6HnBUIz-8">
          <mxGeometry relative="1" as="geometry">
            <mxPoint x="250" y="440" as="sourcePoint" />
            <mxPoint x="160" y="500" as="targetPoint" />
          </mxGeometry>
        </mxCell>
        <mxCell id="nnxOR7MUioTcY6HnBUIz-33" value="" style="rounded=0;html=1;labelBackgroundColor=none;endArrow=none;edgeStyle=elbowEdgeStyle;elbow=vertical;startArrow=sysMLPackCont;startSize=12;" edge="1" parent="1" source="nnxOR7MUioTcY6HnBUIz-10" target="nnxOR7MUioTcY6HnBUIz-11">
          <mxGeometry relative="1" as="geometry">
            <mxPoint x="717" y="470" as="sourcePoint" />
            <mxPoint x="627" y="530" as="targetPoint" />
          </mxGeometry>
        </mxCell>
        <mxCell id="nnxOR7MUioTcY6HnBUIz-34" value="Satisfy" style="html=1;verticalAlign=bottom;endArrow=open;dashed=1;endSize=8;curved=0;rounded=0;" edge="1" parent="1" source="nnxOR7MUioTcY6HnBUIz-14" target="nnxOR7MUioTcY6HnBUIz-9">
          <mxGeometry x="-0.3212" y="-21" relative="1" as="geometry">
            <mxPoint x="800" y="429" as="sourcePoint" />
            <mxPoint x="720" y="429" as="targetPoint" />
            <mxPoint as="offset" />
          </mxGeometry>
        </mxCell>
        <mxCell id="nnxOR7MUioTcY6HnBUIz-35" value="Satisfy" style="html=1;verticalAlign=bottom;endArrow=open;dashed=1;endSize=8;curved=0;rounded=0;" edge="1" parent="1" source="nnxOR7MUioTcY6HnBUIz-13" target="nnxOR7MUioTcY6HnBUIz-6">
          <mxGeometry x="-0.3212" y="-21" relative="1" as="geometry">
            <mxPoint x="110" y="469" as="sourcePoint" />
            <mxPoint x="110" y="430" as="targetPoint" />
            <mxPoint as="offset" />
          </mxGeometry>
        </mxCell>
        <mxCell id="nnxOR7MUioTcY6HnBUIz-36" value="Satisfy" style="html=1;verticalAlign=bottom;endArrow=open;dashed=1;endSize=8;curved=0;rounded=0;" edge="1" parent="1" source="nnxOR7MUioTcY6HnBUIz-12" target="nnxOR7MUioTcY6HnBUIz-3">
          <mxGeometry x="-0.3212" y="-21" relative="1" as="geometry">
            <mxPoint x="50" y="339" as="sourcePoint" />
            <mxPoint x="50" y="300" as="targetPoint" />
            <mxPoint as="offset" />
          </mxGeometry>
        </mxCell>
        <mxCell id="nnxOR7MUioTcY6HnBUIz-37" value="Satisfy" style="html=1;verticalAlign=bottom;endArrow=open;dashed=1;endSize=8;curved=0;rounded=0;" edge="1" parent="1" source="nnxOR7MUioTcY6HnBUIz-15" target="nnxOR7MUioTcY6HnBUIz-7">
          <mxGeometry x="-0.3212" y="-21" relative="1" as="geometry">
            <mxPoint x="757" y="431" as="sourcePoint" />
            <mxPoint x="757" y="392" as="targetPoint" />
            <mxPoint as="offset" />
          </mxGeometry>
        </mxCell>
        <mxCell id="nnxOR7MUioTcY6HnBUIz-38" value="Satisfy" style="html=1;verticalAlign=bottom;endArrow=open;dashed=1;endSize=8;curved=0;rounded=0;" edge="1" parent="1" source="nnxOR7MUioTcY6HnBUIz-16" target="nnxOR7MUioTcY6HnBUIz-11">
          <mxGeometry x="-0.3212" y="-21" relative="1" as="geometry">
            <mxPoint x="845" y="369" as="sourcePoint" />
            <mxPoint x="845" y="330" as="targetPoint" />
            <mxPoint as="offset" />
          </mxGeometry>
        </mxCell>
        <mxCell id="nnxOR7MUioTcY6HnBUIz-39" value="Send Email" style="ellipse;whiteSpace=wrap;html=1;" vertex="1" parent="1">
          <mxGeometry x="770" y="490" width="90" height="40" as="geometry" />
        </mxCell>
        <mxCell id="nnxOR7MUioTcY6HnBUIz-41" value="Validate document" style="ellipse;whiteSpace=wrap;html=1;" vertex="1" parent="1">
          <mxGeometry x="5" y="545" width="130" height="40" as="geometry" />
        </mxCell>
        <mxCell id="nnxOR7MUioTcY6HnBUIz-42" value="Refine" style="html=1;verticalAlign=bottom;endArrow=open;dashed=1;endSize=8;curved=0;rounded=0;" edge="1" parent="1" source="nnxOR7MUioTcY6HnBUIz-41" target="nnxOR7MUioTcY6HnBUIz-6">
          <mxGeometry x="-0.3212" y="-21" relative="1" as="geometry">
            <mxPoint x="132" y="514" as="sourcePoint" />
            <mxPoint x="202" y="494" as="targetPoint" />
            <mxPoint as="offset" />
          </mxGeometry>
        </mxCell>
        <mxCell id="nnxOR7MUioTcY6HnBUIz-43" value="Performs" style="html=1;verticalAlign=bottom;endArrow=open;dashed=1;endSize=8;curved=0;rounded=0;" edge="1" parent="1" source="nnxOR7MUioTcY6HnBUIz-13" target="nnxOR7MUioTcY6HnBUIz-41">
          <mxGeometry x="0.1667" y="-30" relative="1" as="geometry">
            <mxPoint x="118" y="566" as="sourcePoint" />
            <mxPoint x="270" y="440" as="targetPoint" />
            <mxPoint as="offset" />
          </mxGeometry>
        </mxCell>
        <mxCell id="nnxOR7MUioTcY6HnBUIz-44" value="&amp;lt;&amp;lt;problem&amp;gt;&amp;gt;&lt;br&gt;Wrong email provided" style="shape=note;size=15;align=left;spacingLeft=10;html=1;whiteSpace=wrap;" vertex="1" parent="1">
          <mxGeometry x="890" y="610" width="160" height="60" as="geometry" />
        </mxCell>
        <mxCell id="nnxOR7MUioTcY6HnBUIz-45" value="Satisfy" style="html=1;verticalAlign=bottom;endArrow=open;dashed=1;endSize=8;curved=0;rounded=0;" edge="1" parent="1" source="nnxOR7MUioTcY6HnBUIz-15" target="nnxOR7MUioTcY6HnBUIz-10">
          <mxGeometry x="-0.3212" y="-21" relative="1" as="geometry">
            <mxPoint x="560" y="495" as="sourcePoint" />
            <mxPoint x="560" y="440" as="targetPoint" />
            <mxPoint as="offset" />
          </mxGeometry>
        </mxCell>
        <mxCell id="nnxOR7MUioTcY6HnBUIz-46" value="Refine" style="html=1;verticalAlign=bottom;endArrow=open;dashed=1;endSize=8;curved=0;rounded=0;" edge="1" parent="1" source="nnxOR7MUioTcY6HnBUIz-39" target="nnxOR7MUioTcY6HnBUIz-10">
          <mxGeometry x="-0.3212" y="-21" relative="1" as="geometry">
            <mxPoint x="770" y="527" as="sourcePoint" />
            <mxPoint x="927" y="410" as="targetPoint" />
            <mxPoint as="offset" />
          </mxGeometry>
        </mxCell>
        <mxCell id="nnxOR7MUioTcY6HnBUIz-47" value="Performs" style="html=1;verticalAlign=bottom;endArrow=open;dashed=1;endSize=8;curved=0;rounded=0;" edge="1" parent="1" source="nnxOR7MUioTcY6HnBUIz-15" target="nnxOR7MUioTcY6HnBUIz-39">
          <mxGeometry x="0.1667" y="-30" relative="1" as="geometry">
            <mxPoint x="814.5" y="585" as="sourcePoint" />
            <mxPoint x="814.5" y="645" as="targetPoint" />
            <mxPoint as="offset" />
          </mxGeometry>
        </mxCell>
      </root>
    </mxGraphModel>
  </diagram>
</mxfile>
